<svg xmlns="http://www.w3.org/2000/svg" viewBox="0 0 1277 256" fill="none">
  <title>ReportStack horizontal lockup</title>
  <!-- icon -->
  <g transform="translate(0,0)">
    <rect x="48" y="70" width="96" height="28" rx="8" fill="#3B82F6"/>
    <rect x="48" y="114" width="160" height="28" rx="8" fill="#1E40AF"/>
    <rect x="48" y="158" width="128" height="28" rx="8" fill="#1E3A8A"/>
  </g>
  <!-- wordmark -->
<g transform="translate(280.000,185.791) scale(0.082031,-0.082031)" fill="#0F172A">
  <path transform="translate(0,0)" d="M1105 0 778 535H432V0H137V1409H841Q1093 1409 1230.0 1300.5Q1367 1192 1367 989Q1367 841 1283.0 733.5Q1199 626 1056 592L1437 0ZM1070 977Q1070 1180 810 1180H432V764H818Q942 764 1006.0 820.0Q1070 876 1070 977Z"/>
  <path transform="translate(1448.28,0)" d="M586 -20Q342 -20 211.0 124.5Q80 269 80 546Q80 814 213.0 958.0Q346 1102 590 1102Q823 1102 946.0 947.5Q1069 793 1069 495V487H375Q375 329 433.5 248.5Q492 168 600 168Q749 168 788 297L1053 274Q938 -20 586 -20ZM586 925Q487 925 433.5 856.0Q380 787 377 663H797Q789 794 734.0 859.5Q679 925 586 925Z"/>
  <path transform="translate(2556.56,0)" d="M1167 546Q1167 275 1058.5 127.5Q950 -20 752 -20Q638 -20 553.5 29.5Q469 79 424 172H418Q424 142 424 -10V-425H143V833Q143 986 135 1082H408Q413 1064 416.5 1011.0Q420 958 420 906H424Q519 1105 770 1105Q959 1105 1063.0 959.5Q1167 814 1167 546ZM874 546Q874 910 651 910Q539 910 479.5 812.0Q420 714 420 538Q420 363 479.5 267.5Q539 172 649 172Q874 172 874 546Z"/>
  <path transform="translate(3776.84,0)" d="M1171 542Q1171 279 1025.0 129.5Q879 -20 621 -20Q368 -20 224.0 130.0Q80 280 80 542Q80 803 224.0 952.5Q368 1102 627 1102Q892 1102 1031.5 957.5Q1171 813 1171 542ZM877 542Q877 735 814.0 822.0Q751 909 631 909Q375 909 375 542Q375 361 437.5 266.5Q500 172 618 172Q877 172 877 542Z"/>
  <path transform="translate(4997.12,0)" d="M143 0V828Q143 917 140.5 976.5Q138 1036 135 1082H403Q406 1064 411.0 972.5Q416 881 416 851H420Q461 965 493.0 1011.5Q525 1058 569.0 1080.5Q613 1103 679 1103Q733 1103 766 1088V853Q698 868 646 868Q541 868 482.5 783.0Q424 698 424 531V0Z"/>
  <path transform="translate(5763.4,0)" d="M420 -18Q296 -18 229.0 49.5Q162 117 162 254V892H25V1082H176L264 1336H440V1082H645V892H440V330Q440 251 470.0 213.5Q500 176 563 176Q596 176 657 190V16Q553 -18 420 -18Z"/>
</g>
<g transform="translate(809.564,185.791) scale(0.082031,-0.082031)" fill="#1E40AF">
  <path transform="translate(0,0)" d="M1286 406Q1286 199 1132.5 89.5Q979 -20 682 -20Q411 -20 257.0 76.0Q103 172 59 367L344 414Q373 302 457.0 251.5Q541 201 690 201Q999 201 999 389Q999 449 963.5 488.0Q928 527 863.5 553.0Q799 579 616 616Q458 653 396.0 675.5Q334 698 284.0 728.5Q234 759 199.0 802.0Q164 845 144.5 903.0Q125 961 125 1036Q125 1227 268.5 1328.5Q412 1430 686 1430Q948 1430 1079.5 1348.0Q1211 1266 1249 1077L963 1038Q941 1129 873.5 1175.0Q806 1221 680 1221Q412 1221 412 1053Q412 998 440.5 963.0Q469 928 525.0 903.5Q581 879 752 842Q955 799 1042.5 762.5Q1130 726 1181.0 677.5Q1232 629 1259.0 561.5Q1286 494 1286 406Z"/>
  <path transform="translate(1335.28,0)" d="M420 -18Q296 -18 229.0 49.5Q162 117 162 254V892H25V1082H176L264 1336H440V1082H645V892H440V330Q440 251 470.0 213.5Q500 176 563 176Q596 176 657 190V16Q553 -18 420 -18Z"/>
  <path transform="translate(1986.56,0)" d="M393 -20Q236 -20 148.0 65.5Q60 151 60 306Q60 474 169.5 562.0Q279 650 487 652L720 656V711Q720 817 683.0 868.5Q646 920 562 920Q484 920 447.5 884.5Q411 849 402 767L109 781Q136 939 253.5 1020.5Q371 1102 574 1102Q779 1102 890.0 1001.0Q1001 900 1001 714V320Q1001 229 1021.5 194.5Q1042 160 1090 160Q1122 160 1152 166V14Q1127 8 1107.0 3.0Q1087 -2 1067.0 -5.0Q1047 -8 1024.5 -10.0Q1002 -12 972 -12Q866 -12 815.5 40.0Q765 92 755 193H749Q631 -20 393 -20ZM720 501 576 499Q478 495 437.0 477.5Q396 460 374.5 424.0Q353 388 353 328Q353 251 388.5 213.5Q424 176 483 176Q549 176 603.5 212.0Q658 248 689.0 311.5Q720 375 720 446Z"/>
  <path transform="translate(3094.84,0)" d="M594 -20Q348 -20 214.0 126.5Q80 273 80 535Q80 803 215.0 952.5Q350 1102 598 1102Q789 1102 914.0 1006.0Q1039 910 1071 741L788 727Q776 810 728.0 859.5Q680 909 592 909Q375 909 375 546Q375 172 596 172Q676 172 730.0 222.5Q784 273 797 373L1079 360Q1064 249 999.5 162.0Q935 75 830.0 27.5Q725 -20 594 -20Z"/>
  <path transform="translate(4203.12,0)" d="M834 0 545 490 424 406V0H143V1484H424V634L810 1082H1112L732 660L1141 0Z"/>
</g>
</svg>
